<?xml version="1.0" encoding="UTF-8"?>
<svg id="level" xmlns="http://www.w3.org/2000/svg" viewBox="0 0 1319.81 722.87">
  <defs>
    <style>
      .cls-1 {
        fill: #fff;
      }

      .cls-2 {
        fill: #e178f5;
      }
    </style>
  </defs>
  <path class="cls-2" d="M914.94,398.87c-4.71,9.81-17.02,9.54-26.46,10.68-6.95.63-15.82,2.12-22.74,3.04-27.37,3.71-55.81,7-83.33,9.83-60.73,6.13-121.68,9.83-182.75,10.36-20.37.46-40.75,1.29-60.77-1.06-17.28-2.02-35-6.65-48.59-18.02-11.55-9.29-23.87-30.09-18.97-45.03,5.4-13.76,24.61-16.12,37.74-17.29,19.88-1.41,40.94.87,60.94.35,89.06-.51,178.02-9.02,267.1-5.92,22.21.61,47.15-1.32,65.77,12.9,7.97,6.15,13.3,15.5,14.22,25.55.49,4.96.09,10.16-2.16,14.61Z"/>
  <path class="cls-1" d="M913.67,369.44c-15.31-26.36-49.92-24.64-76.52-25.28-89.05-3.63-178.14,4.14-267.15,4.3-20.14.42-41.06-1.95-61.18-.6-14.54,1.21-34.97,3.91-40.94,19.56-4.82,14.69,4.97,32.64,14.9,43.15,14.48,15.04,35.35,22.33,55.67,24.8,20.41,2.38,40.88.69,61.27.15,10.14-.28,20.36-.23,30.54-.5,81.42-1.56,163.06-7.38,243.36-21.42,4.31-.69,10.81-1.99,15.04-2.39,7.49-1.07,15.73-1.42,22.22-5.87,10.54-8.35,8.62-25.27,2.79-35.9ZM888.48,409.55c-6.95.63-15.82,2.12-22.74,3.04-27.37,3.71-55.81,7-83.33,9.83-60.73,6.13-121.68,9.83-182.75,10.36-20.37.46-40.75,1.29-60.77-1.06-17.28-2.02-35-6.65-48.59-18.02-11.55-9.29-23.87-30.09-18.97-45.03,5.4-13.76,24.61-16.12,37.74-17.29,19.88-1.41,40.94.87,60.94.35,89.06-.51,178.02-9.02,267.1-5.92,22.21.61,47.15-1.32,65.77,12.9,7.97,6.15,13.3,15.5,14.22,25.55.49,4.96.09,10.16-2.16,14.61-4.71,9.81-17.02,9.54-26.46,10.68Z"/>
</svg>