<?xml version="1.0" encoding="UTF-8"?>
<svg id="play" xmlns="http://www.w3.org/2000/svg" viewBox="0 0 1319.81 722.87">
  <defs>
    <style>
      .cls-1 {
        fill: #b964dc;
      }

      .cls-2 {
        fill: #fff;
      }
    </style>
  </defs>
  <path class="cls-1" d="M866.4,311.2c-23.38,5.04-47.37,4.55-71.24,5.74-19.1,1.01-38.18,1.94-57.29,2.69-18.73.77-38.52,1.35-57.31,1.68-33.6.5-81.53,2.19-114.64,1.46-18.84-.27-38.04-.78-56.1-6.05-13.08-3.96-23.54-13.57-29.6-25.46-6.94-13.99-7.58-26.25,8.44-33.69,8.53-3.89,18.09-5.43,27.4-6.54,18.96-1.97,38.16-1,57.22-1.37,95.33.22,191.47-9.18,286.26,3.67,9.17,1.55,18.57,4.02,25.18,10.65,6.28,6.5,11.43,14.94,11.97,24.02.86,15.63-17.71,20.41-30.31,23.22Z"/>
  <path class="cls-2" d="M909.84,275.97c-4.21-9.24-11.59-17.41-21.3-20.87-4.76-1.83-9.71-2.84-14.61-3.71-39.33-6-79.11-6.44-118.79-6.96-69.38.85-138.65,4.19-208.03,3.65-14.87-.02-29.96.36-44.56,3.61-11.93,2.52-26.41,8.11-29.25,21.5-3.58,23.16,13.38,48.09,36.17,53.43,29.19,8,59.61,5.64,89.48,5.7,34.43-.94,84.47-2.68,118.88-3.95,9.9-.42,19.8-.88,29.7-1.38,19.8-.99,39.59-2.17,59.36-3.46,29.49-1.84,60.07-.94,88.33-11.11,17.79-6.71,22.17-19.47,14.62-36.45ZM880.61,315.42c-24.23,5.37-49.09,4.85-73.83,6.11-19.79,1.08-39.57,2.07-59.37,2.87-19.41.82-39.92,1.44-59.39,1.79-34.82.53-84.49,2.33-118.81,1.55-19.52-.29-39.42-.83-58.14-6.45-13.56-4.22-24.4-14.46-30.68-27.12-7.19-14.9-7.86-27.96,8.75-35.89,8.84-4.14,18.75-5.78,28.4-6.97,19.65-2.1,39.55-1.06,59.3-1.46,98.8.23,198.43-9.78,296.67,3.91,9.5,1.65,19.24,4.28,26.1,11.34,6.51,6.92,11.85,15.91,12.41,25.59.89,16.65-18.35,21.74-31.41,24.73Z"/>
</svg>