<?xml version="1.0" encoding="UTF-8"?>
<svg id="quit" xmlns="http://www.w3.org/2000/svg" viewBox="0 0 1319.81 722.87">
  <defs>
    <style>
      .cls-1 {
        fill: #ffa0ff;
      }

      .cls-2 {
        fill: #fff;
      }
    </style>
  </defs>
  <path class="cls-1" d="M896.39,607.21c-3.66,1.89-7.83,2.55-11.98,2.89l-100.6,5.66-201.39,8.12c-20.59.88-41.21,1.81-61.76-.12-5.02-.47-10.13-.86-14.83-2.71-4.75-1.72-8.43-5.12-11.66-8.9-3.45-3.82-6.82-7.68-9.76-11.79-2.95-3.88-5.62-9.1-7.36-12.97-2.6-7.43-.42-15.66,5.2-21.04,11.93-11.35,30.22-11.65,46.02-13.21,25.07-2.23,50.23-2.51,75.38-3.54,50.34-1.75,100.71-3.14,151.08-3.12,37.65.39,75.72-.09,112.86,6.52,4.03.97,8.06,2.21,11.78,3.97,3.68,1.81,6.76,4.66,9.38,7.88,5.15,6.51,10.2,13.36,13.19,21.15,3.41,8.06,2.91,16.93-5.55,21.21Z"/>
  <path class="cls-2" d="M897.04,574.39c-4.8-6.9-9.37-14.56-17.11-18.53-7.75-3.65-16.14-5.32-24.5-6.4-66.87-7.72-134.34-5.42-201.5-4.78-42,1.11-84.08,1.24-126.01,4.28-16.57,1.54-36.01,1.84-48.71,14.39-6.81,6.59-9.13,16.64-5.75,25.44,4.28,9.69,11.25,17.91,18.49,25.42,1.81,1.92,3.61,3.94,5.75,5.54,6.44,5.11,14.85,6,22.72,6.68,20.64,1.95,41.47,1.84,62.14.89,65.88-3.05,238.44-11.28,301.94-16.22,4.19-.35,8.5-1.01,12.35-3,14.07-7.29,6.75-23.65.19-33.71ZM896.39,607.21c-3.66,1.89-7.83,2.55-11.98,2.89l-100.6,5.66-201.39,8.12c-20.59.88-41.21,1.81-61.76-.12-5.02-.47-10.13-.86-14.83-2.71-4.75-1.72-8.43-5.12-11.66-8.9-3.45-3.82-6.82-7.68-9.76-11.79-2.95-3.88-5.62-9.1-7.36-12.97-2.6-7.43-.42-15.66,5.2-21.04,11.93-11.35,30.22-11.65,46.02-13.21,25.07-2.23,50.23-2.51,75.38-3.54,50.34-1.75,100.71-3.14,151.08-3.12,37.65.39,75.72-.09,112.86,6.52,4.03.97,8.06,2.21,11.78,3.97,3.68,1.81,6.76,4.66,9.38,7.88,5.15,6.51,10.2,13.36,13.19,21.15,3.41,8.06,2.91,16.93-5.55,21.21Z"/>
</svg>