<?xml version="1.0" encoding="UTF-8"?>
<svg id="settings" xmlns="http://www.w3.org/2000/svg" viewBox="0 0 1319.81 722.87">
  <defs>
    <style>
      .cls-1 {
        fill: #fff;
      }

      .cls-2 {
        fill: #fa7dfa;
      }
    </style>
  </defs>
  <path class="cls-2" d="M901.4,497.47c-3.47,3.29-8.09,5.02-12.66,6.26-9.4,2.25-18.99,4.08-28.53,5.89-57.37,10.64-115.84,14.71-174.15,14.21-16.46-.4-42.08-.54-58.34-1.08-24.32-.63-48.59-1.89-72.89-3.09-13.95-.55-29.81-.67-43.34-3.77-17.86-3.9-38.18-13.06-43.57-31.98l-.4-1.69c-.7-2.54-.36-5.28,1.19-7.43,6.83-8.68,25.44-10.03,36.07-11.61,40.79-6.18,82.19-7.56,123.37-9.2,45.31-1.81,100.3-1.57,145.78-2,24.28-.26,48.56-.16,72.62,3.3,14.32,1.69,29.12,2.92,42.37,8.87,5.43,2.41,10.65,5.66,13.97,10.63,4.27,6.79,4.69,16.92-1.49,22.69Z"/>
  <path class="cls-1" d="M905.83,477.36c-8.31-19.11-40.68-21.97-58.98-24.49-24.08-4.06-48.55-4.79-72.9-5.06-29.17-.54-58.4-.69-87.59-.71-60.82,1.3-121.94,2.71-182.14,12.23-12.53,2.02-44.21,4.78-39.82,23.55,4.85,21.05,27.22,31.52,46.59,35.37,18.94,3.93,39.17,2.79,58.34,3.96,28.91,1.14,58.57,2.19,87.54,2.28,28.25.46,59.49.69,87.55-.87,48.59-2.48,97.1-8.18,144.64-18.69,4.76-1.26,9.58-3.04,13.25-6.5,5.75-5.24,6.34-14.18,3.52-21.07ZM901.4,497.47c-3.47,3.29-8.09,5.02-12.66,6.26-9.4,2.25-18.99,4.08-28.53,5.89-57.37,10.64-115.84,14.71-174.15,14.21-16.46-.4-42.08-.54-58.34-1.08-24.32-.63-48.59-1.89-72.89-3.09-13.95-.55-29.81-.67-43.34-3.77-17.86-3.9-38.18-13.06-43.57-31.98l-.4-1.69c-.7-2.54-.36-5.28,1.19-7.43,6.83-8.68,25.44-10.03,36.07-11.61,40.79-6.18,82.19-7.56,123.37-9.2,45.31-1.81,100.3-1.57,145.78-2,24.28-.26,48.56-.16,72.62,3.3,14.32,1.69,29.12,2.92,42.37,8.87,5.43,2.41,10.65,5.66,13.97,10.63,4.27,6.79,4.69,16.92-1.49,22.69Z"/>
</svg>